<svg width="16" height="12" viewBox="0 0 16 12" fill="none" xmlns="http://www.w3.org/2000/svg">
<path d="M14.465 0.286752L5.0801 9.82399L1.53497 6.2217C1.31399 5.98068 0.981186 5.88147 0.667114 5.96299C0.353043 6.0445 0.107798 6.29374 0.0275891 6.61293C-0.0526193 6.93212 0.0450014 7.27035 0.282155 7.49493L4.45369 11.735C4.61943 11.9046 4.84491 12 5.0801 12C5.3153 12 5.54077 11.9046 5.70651 11.735L15.7178 1.55998C15.955 1.3354 16.0526 0.997173 15.9724 0.677984C15.8922 0.358795 15.647 0.109554 15.3329 0.0280386C15.0188 -0.0534767 14.686 0.0457346 14.465 0.286752Z" fill="#3B3751"/>
</svg>
