<?xml version="1.0" standalone="no"?><!DOCTYPE svg PUBLIC "-//W3C//DTD SVG 1.1//EN" "http://www.w3.org/Graphics/SVG/1.1/DTD/svg11.dtd"><svg t="1651580069229" class="icon" viewBox="0 0 1024 1024" version="1.1" xmlns="http://www.w3.org/2000/svg" p-id="3135" xmlns:xlink="http://www.w3.org/1999/xlink" width="200" height="200"><defs><style type="text/css"></style></defs><path d="M780.8 320l-19.2 0L492.8 320C467.2 320 448 339.2 448 371.2l0 480C448 876.8 467.2 896 492.8 896l358.4 0c25.6 0 44.8-19.2 44.8-51.2l0-384L896 441.6 780.8 320zM870.4 838.4c0 19.2-12.8 38.4-32 38.4L505.6 876.8c-19.2 0-32-19.2-32-38.4L473.6 377.6c0-19.2 12.8-38.4 32-38.4l256 0 0 70.4c0 25.6 19.2 51.2 44.8 51.2l70.4 0L876.8 838.4zM819.2 441.6c-19.2 0-32-19.2-32-38.4L787.2 345.6l89.6 96L819.2 441.6z" p-id="3136" fill="#ffffff"></path><path d="M793.6 512 544 512C537.6 512 537.6 518.4 537.6 524.8l0 0c0 6.4 6.4 12.8 12.8 12.8l243.2 0c6.4 0 12.8-6.4 12.8-12.8l0 0C800 518.4 800 512 793.6 512z" p-id="3137" fill="#ffffff"></path><path d="M793.6 620.8 544 620.8c-6.4 0-12.8 6.4-12.8 12.8l0 0c0 6.4 6.4 12.8 12.8 12.8l243.2 0c6.4 0 12.8-6.4 12.8-12.8l0 0C800 627.2 800 620.8 793.6 620.8z" p-id="3138" fill="#ffffff"></path><path d="M659.2 729.6 544 729.6c-6.4 0-12.8 6.4-12.8 12.8l0 0c0 6.4 6.4 12.8 12.8 12.8l108.8 0c6.4 0 12.8-6.4 12.8-12.8l0 0C672 729.6 665.6 729.6 659.2 729.6z" p-id="3139" fill="#ffffff"></path><path d="M230.4 537.6c-6.4 0-12.8 6.4-12.8 12.8l0 0c0 6.4 6.4 12.8 12.8 12.8l108.8 0c6.4 0 12.8-6.4 12.8-12.8l0 0c0-6.4-6.4-12.8-12.8-12.8L230.4 537.6z" p-id="3140" fill="#ffffff"></path><path d="M217.6 441.6 217.6 441.6c0 6.4 6.4 12.8 12.8 12.8l192 0L422.4 428.8l-192 0C224 428.8 217.6 435.2 217.6 441.6z" p-id="3141" fill="#ffffff"></path><path d="M217.6 332.8 217.6 332.8c0 6.4 6.4 12.8 12.8 12.8l192 0c0-6.4 6.4-19.2 12.8-25.6L230.4 320C224 320 217.6 326.4 217.6 332.8z" p-id="3142" fill="#ffffff"></path><path d="M486.4 275.2l70.4 0 0 32L576 307.2 576 275.2 576 249.6 467.2 128 441.6 128 172.8 128C147.2 128 128 153.6 128 179.2l0 480C128 684.8 147.2 704 172.8 704l249.6 0 0-25.6L185.6 678.4c-19.2 0-32-19.2-32-38.4L153.6 192c0-19.2 12.8-38.4 32-38.4l256 0 0 70.4C441.6 249.6 460.8 275.2 486.4 275.2zM467.2 153.6l89.6 96L499.2 249.6c-19.2 0-32-19.2-32-38.4L467.2 153.6z" p-id="3143" fill="#ffffff"></path></svg>