<?xml version="1.0" standalone="no"?><!DOCTYPE svg PUBLIC "-//W3C//DTD SVG 1.1//EN" "http://www.w3.org/Graphics/SVG/1.1/DTD/svg11.dtd"><svg t="1650523694695" class="icon" viewBox="0 0 1024 1024" version="1.1" xmlns="http://www.w3.org/2000/svg" p-id="33022" xmlns:xlink="http://www.w3.org/1999/xlink" width="200" height="200"><defs><style type="text/css"></style></defs><path d="M512.30930834 457.73847903h-0.02945794c-10.19244639 0-19.92829476-4.27140094-26.85091008-11.76844607l-90.18547584-97.60887609a36.50722202 36.50722202 0 0 1-9.72111939-24.83304137V156.92874963c0-20.20814517 16.37861328-36.60148741 36.60148742-36.6014874h180.66553104c20.22287413 0 36.60148741 16.39334226 36.60148742 36.6014874v166.59936587c0 9.22033445-3.4907656 18.11663161-9.7653063 24.87722827l-90.48005521 97.6088761a36.56613789 36.56613789 0 0 1-26.83618112 11.72425916z m-53.58398841-148.54165014l53.62817531 58.04686595 53.83438091-58.07632391v-115.65186284h-107.46255622v115.6813208z m144.06404362 14.33128661h0.2356635-0.2356635zM602.78936355 902.09673812H422.12383251c-20.22287413 0-36.60148741-16.39334226-36.60148742-36.60148742V698.89588483c0-9.20560548 3.46130767-18.08717365 9.72111939-24.83304134l90.18547584-97.60887612c6.92261532-7.51177407 16.64373472-11.76844607 26.85091008-11.76844606h0.02945794c10.19244639 0 19.91356579 4.24194301 26.85091009 11.72425915L629.62554467 674.01865657a36.58970422 36.58970422 0 0 1 9.7653063 24.87722826V865.4952507c0 20.19341619-16.37861328 36.60148741-36.60148742 36.60148742z m-144.06404362-73.21770381h107.46255622v-115.65186284l-53.83438091-58.07632392-53.62817531 58.04686598v115.68132078z" fill="#d4237a" p-id="33023"></path><path d="M866.74721305 638.1536176h-166.5846369c-9.23506343 0-18.11663161-3.47603662-24.87722826-9.76530631l-97.6088761-90.48005522a36.54257154 36.54257154 0 0 1-11.72425915-26.85091008c0.01472898-10.19244639 4.27140094-19.94302372 11.75371709-26.85091008l97.60887608-90.20020481c6.76059667-6.24508276 15.62743587-9.72111939 24.84777034-9.72111939h166.5846369c20.22287413 0 36.60148741 16.39334226 36.60148741 36.60148743V601.55213018c0 20.20814517-16.39334226 36.60148741-36.60148741 36.60148742z m-152.2386213-73.20297485h115.62240491v-107.47728517h-115.65186286l-58.03213698 53.64290429 58.06159493 53.83438088zM324.76534887 638.1536176H158.16598303c-20.22287413 0-36.60148741-16.39334226-36.60148742-36.60148742V420.87187017c0-20.20814517 16.37861328-36.60148741 36.60148742-36.60148742h166.59936584c9.20560548 0 18.07244469 3.47603662 24.84777033 9.7211194l97.60887612 90.20020479a36.521951 36.521951 0 0 1 11.75371707 26.85091009c0.01472898 10.19244639-4.24194301 19.92829476-11.72425914 26.85091008l-97.60887612 90.4800552a36.46598091 36.46598091 0 0 1-24.87722826 9.78003529z m-129.99787844-73.20297485h115.63713388l58.07632391-53.83438088-58.032137-53.64290429h-115.66659181v107.47728517z" fill="#d4237a" p-id="33024"></path></svg>