<svg width="18" height="18" viewBox="0 0 18 18" fill="none" xmlns="http://www.w3.org/2000/svg">
<path d="M4.9502 4.69922C5.11573 4.69932 5.24989 4.83349 5.25 4.99902V5.89941C5.24989 6.06494 5.11573 6.19911 4.9502 6.19922H3.375V13.9082H14.625V6.19922H13.0498C12.8843 6.19911 12.7501 6.06494 12.75 5.89941V4.99902C12.7501 4.83349 12.8843 4.69932 13.0498 4.69922H15.375C15.7892 4.69922 16.125 5.03501 16.125 5.44922V14.6582C16.1248 15.0722 15.7891 15.4082 15.375 15.4082H2.625C2.21091 15.4082 1.8752 15.0722 1.875 14.6582V5.44922C1.875 5.03501 2.21079 4.69922 2.625 4.69922H4.9502ZM9.44922 2.37891C9.61478 2.37898 9.74892 2.51316 9.74902 2.67871V9.83984L11.2686 8.32031C11.3856 8.20355 11.5753 8.20367 11.6924 8.32031L12.3291 8.95703C12.4463 9.07419 12.4463 9.26468 12.3291 9.38184L9.53223 12.1787C9.39168 12.3193 9.20071 12.3983 9.00195 12.3984C8.80304 12.3984 8.61136 12.3194 8.4707 12.1787L5.67383 9.38184C5.55667 9.26468 5.55667 9.07419 5.67383 8.95703L6.31055 8.32031C6.42764 8.20365 6.61733 8.20357 6.73438 8.32031L8.24902 9.83496V2.67871C8.24913 2.5132 8.38333 2.37905 8.54883 2.37891H9.44922Z" fill="white"/>
</svg>
