<svg width="20" height="20" viewBox="0 0 20 20" fill="none" xmlns="http://www.w3.org/2000/svg">
  <path d="M3.75 8.75C4.44036 8.75 5 9.30964 5 10C5 10.6904 4.44036 11.25 3.75 11.25C3.05964 11.25 2.5 10.6904 2.5 10C2.5 9.30964 3.05964 8.75 3.75 8.75Z" fill="#101217"/>
  <path d="M10 8.75C10.6904 8.75 11.25 9.30964 11.25 10C11.25 10.6904 10.6904 11.25 10 11.25C9.30964 11.25 8.75 10.6904 8.75 10C8.75 9.30964 9.30964 8.75 10 8.75Z" fill="#101217"/>
  <path d="M16.25 8.75C16.9404 8.75 17.5 9.30964 17.5 10C17.5 10.6904 16.9404 11.25 16.25 11.25C15.5596 11.25 15 10.6904 15 10C15 9.30964 15.5596 8.75 16.25 8.75Z" fill="#101217"/>
</svg>
