<svg width="44" height="12" viewBox="0 0 44 12" fill="none" xmlns="http://www.w3.org/2000/svg">
<g clip-path="url(#clip0_1257_4852)">
<path d="M44 8C44 3.58172 40.4183 0 36 0H0V4C0 8.41828 3.58172 12 8 12H44V8Z" fill="url(#paint0_linear_1257_4852)"/>
<path d="M11.174 6.536V6.41H14.884V9.497H14.247V9.196H11.797V9.497H11.174V6.69L10.845 7.117C10.74 7.005 10.544 6.83 10.341 6.655V9.483H9.704V6.991C9.508 7.236 9.291 7.467 9.039 7.712L8.773 7.019C9.354 6.445 9.921 5.654 10.208 4.975H8.955V4.338H9.928C9.802 4.044 9.599 3.603 9.431 3.309L10.012 2.987C10.18 3.323 10.383 3.743 10.523 4.03L9.963 4.338H10.901V5.017C10.754 5.346 10.6 5.647 10.432 5.934C10.677 6.123 10.999 6.389 11.174 6.536ZM11.076 3.981V3.4H14.996V3.981H11.076ZM11.447 5.976V4.415H14.611V5.976H11.447ZM12.077 5.451H13.974V4.933H12.077V5.451ZM12.714 7.523V6.97H11.797V7.523H12.714ZM13.323 7.523H14.247V6.97H13.323V7.523ZM11.797 8.055V8.636H12.714V8.055H11.797ZM13.323 8.055V8.636H14.247V8.055H13.323ZM21.107 8.272V3.141H21.8V8.517C21.8 9.175 21.548 9.42 20.764 9.42H19.889L19.749 8.713H20.589C21.002 8.713 21.107 8.622 21.107 8.272ZM19.259 5.71H17.964V6.151C18.482 6.543 18.993 7.012 19.294 7.306L18.902 7.908C18.65 7.635 18.279 7.257 17.964 6.963V9.483H17.292V6.9C16.998 7.404 16.599 7.95 16.109 8.475L15.836 7.705C16.361 7.215 16.851 6.522 17.229 5.71H15.969V5.052H17.292V4.219C16.865 4.282 16.459 4.338 16.123 4.373L16.053 3.722C16.942 3.638 18.188 3.449 19.035 3.253L19.168 3.897C18.825 3.967 18.405 4.044 17.964 4.114V5.052H19.259V5.71ZM19.63 3.764H20.316V7.929H19.63V3.764ZM24.684 4.135L24.306 4.702C24.005 4.45 23.389 3.981 23.074 3.764L23.452 3.204C23.739 3.414 24.362 3.89 24.684 4.135ZM29.087 5.017V5.682H27.176V6.613H28.667V9.504H27.96V9.119H25.699V9.504H24.999V6.613H26.469V5.682H24.649V5.017H26.469V4.163C25.93 4.205 25.391 4.233 24.929 4.247L24.88 3.603C26.133 3.575 27.764 3.435 28.681 3.281L28.814 3.925C28.387 3.988 27.799 4.058 27.176 4.107V5.017H29.087ZM24.502 5.829L24.11 6.424C23.739 6.123 23.123 5.64 22.808 5.402L23.193 4.842C23.536 5.094 24.131 5.542 24.502 5.829ZM23.039 9.21L23.886 6.837L24.194 6.935L24.544 7.04L23.704 9.427L23.039 9.21ZM25.699 8.475H27.96V7.264H25.699V8.475ZM34.253 4.366H35.877C35.87 4.856 35.786 7.796 35.751 8.412C35.716 9.084 35.478 9.301 34.764 9.301H34.036L33.903 8.622H34.498C34.988 8.622 35.1 8.531 35.121 8.076C35.149 7.656 35.226 5.507 35.233 5.045H34.232C34.155 7.46 34.085 8.237 33.063 9.553L32.468 9.14C32.643 8.93 32.79 8.741 32.916 8.552L32.426 8.776L32.314 8.489L30.102 8.762L29.962 8.132C30.34 7.502 30.69 6.641 30.9 5.941H29.906V5.276H32.874V5.941H31.6C31.404 6.62 31.005 7.607 30.795 8.02L32.09 7.88C31.929 7.439 31.754 6.984 31.621 6.676L32.209 6.459C32.419 6.942 32.769 7.866 32.986 8.433C33.476 7.635 33.56 6.851 33.609 5.045H32.93V4.366H33.616C33.63 3.869 33.637 3.246 33.644 3.071H34.274C34.274 3.197 34.267 3.799 34.253 4.366ZM30.214 3.519H32.685V4.191H30.214V3.519Z" fill="black"/>
</g>
<defs>
<linearGradient id="paint0_linear_1257_4852" x1="44" y1="0" x2="37.9077" y2="22.3385" gradientUnits="userSpaceOnUse">
<stop stop-color="#DEF823"/>
<stop offset="1" stop-color="#91FE03"/>
</linearGradient>
<clipPath id="clip0_1257_4852">
<rect width="44" height="12" fill="white"/>
</clipPath>
</defs>
</svg>
