<svg width="16" height="16" viewBox="0 0 16 16" fill="none" xmlns="http://www.w3.org/2000/svg">
<path fill-rule="evenodd" clip-rule="evenodd" d="M6.73293 4.77548C7.07229 4.48295 10.1075 1.94598 14.9873 0.433267C14.9873 0.433267 15.0084 0.42627 15.0311 0.42627C15.0677 0.42627 15.1087 0.444575 15.0725 0.540414C15.0725 0.540414 13.8014 2.31159 13.0912 3.75433C13.0912 3.75433 13.0611 3.83102 13.1552 3.79709C13.1552 3.79709 13.3351 3.74571 13.5174 3.71136C13.5174 3.71136 13.6487 3.68634 13.5599 3.81851C13.5599 3.81851 12.3654 5.36681 11.4075 7.10329C11.4289 7.10099 11.4504 7.09873 11.4721 7.09652C11.4721 7.09652 14.1208 7.48213 15.9672 8.66054C15.9672 8.66054 16.0736 8.76769 15.9032 8.7891C15.9032 8.7891 12.0033 9.29023 9.45391 10.1714C9.76859 10.8297 10.1024 11.5532 10.4562 12.3491C10.9263 13.2589 11.46 14.3744 11.877 15.4739C11.877 15.4739 11.9025 15.6667 11.7278 15.5168C11.7278 15.5168 9.95961 13.3206 7.44575 11.8315C7.384 11.7949 7.2697 11.7443 7.11742 11.6768C6.0945 11.2233 3.35736 10.01 3.31272 7.20375C3.30931 6.98713 3.34699 6.71778 3.38646 6.43571C3.4622 5.89436 3.54449 5.30618 3.35537 4.95401C3.35537 4.95401 3.18498 4.40775 2.35403 3.71136C2.35403 3.71136 1.55166 3.17577 0.245044 2.57586C0.245044 2.57586 0.106552 2.50808 0.0107118 2.46878C0.0107118 2.46878 -0.0386585 2.36425 0.074582 2.38305C0.074582 2.38305 2.1064 2.97759 2.84413 3.24001C2.84413 3.24001 3.00179 3.29139 3.16369 3.2186C3.16369 3.2186 4.28563 2.75799 5.27275 3.58287L5.27346 3.58372C5.38437 3.64132 5.7857 3.90283 6.523 4.93161C6.52854 4.92702 6.53437 4.92277 6.54018 4.91854C6.54521 4.91488 6.55022 4.91123 6.55504 4.90736C6.57951 4.88708 6.60533 4.86764 6.63213 4.84891C6.6379 4.84462 6.64365 4.84032 6.6494 4.83602C6.67694 4.8154 6.70443 4.79484 6.73293 4.77548Z" fill="white"/>
</svg>
