<svg width="32" height="32" viewBox="0 0 32 32" fill="none" xmlns="http://www.w3.org/2000/svg">
<path fill-rule="evenodd" clip-rule="evenodd" d="M0 5.33333C0 2.38782 2.38781 0 5.33333 0H26.6667C29.6122 0 32 2.38781 32 5.33333V26.6667C32 29.6122 29.6122 32 26.6667 32H5.33333C2.38782 32 0 29.6122 0 26.6667V5.33333Z" fill="url(#paint0_linear_7161_18251)"/>
<path d="M6.02539 20.9349C5.71289 20.9349 5.44379 20.8264 5.2181 20.6094C5.00109 20.3837 4.89258 20.1146 4.89258 19.8021V12.1979C4.89258 11.8854 5.00109 11.6207 5.2181 11.4036C5.44379 11.178 5.71289 11.0651 6.02539 11.0651H10.127C10.3526 11.0651 10.5436 11.1476 10.6999 11.3125C10.8648 11.4688 10.9473 11.6597 10.9473 11.8854C10.9473 12.1111 10.8648 12.3064 10.6999 12.4714C10.5436 12.6276 10.3526 12.7057 10.127 12.7057H7.00195C6.91515 12.7057 6.87174 12.7491 6.87174 12.8359V14.8542C6.87174 14.941 6.91515 14.9844 7.00195 14.9844H9.50195C9.73633 14.9844 9.93164 15.0668 10.0879 15.2318C10.2528 15.388 10.3353 15.5833 10.3353 15.8177C10.3353 16.0434 10.2528 16.2387 10.0879 16.4036C9.93164 16.5599 9.73633 16.638 9.50195 16.638H7.00195C6.91515 16.638 6.87174 16.6814 6.87174 16.7682V19.151C6.87174 19.2378 6.91515 19.2813 7.00195 19.2813H10.2702C10.4959 19.2813 10.6868 19.3637 10.8431 19.5286C11.008 19.6849 11.0905 19.8802 11.0905 20.1146C11.0905 20.3403 11.008 20.5356 10.8431 20.7005C10.6868 20.8568 10.4959 20.9349 10.2702 20.9349H6.02539Z" fill="white"/>
<path d="M22.0415 20.9349C21.729 20.9349 21.4599 20.8264 21.2342 20.6094C21.0172 20.3837 20.9087 20.1146 20.9087 19.8021V12.1979C20.9087 11.8854 21.0172 11.6207 21.2342 11.4036C21.4599 11.178 21.729 11.0651 22.0415 11.0651H26.1431C26.3688 11.0651 26.5598 11.1476 26.716 11.3125C26.8809 11.4688 26.9634 11.6597 26.9634 11.8854C26.9634 12.1111 26.8809 12.3064 26.716 12.4714C26.5598 12.6276 26.3688 12.7057 26.1431 12.7057H23.0181C22.9313 12.7057 22.8879 12.7491 22.8879 12.8359V14.8542C22.8879 14.941 22.9313 14.9844 23.0181 14.9844H25.5181C25.7525 14.9844 25.9478 15.0668 26.104 15.2318C26.269 15.388 26.3514 15.5833 26.3514 15.8177C26.3514 16.0434 26.269 16.2387 26.104 16.4036C25.9478 16.5599 25.7525 16.638 25.5181 16.638H23.0181C22.9313 16.638 22.8879 16.6814 22.8879 16.7682V19.151C22.8879 19.2378 22.9313 19.2813 23.0181 19.2813H26.2863C26.512 19.2813 26.703 19.3637 26.8592 19.5286C27.0242 19.6849 27.1066 19.8802 27.1066 20.1146C27.1066 20.3403 27.0242 20.5356 26.8592 20.7005C26.703 20.8568 26.512 20.9349 26.2863 20.9349H22.0415Z" fill="white"/>
<path d="M14.2919 20.5546C14.0339 20.9705 13.463 21.1127 13.0167 20.8723C12.5705 20.6319 12.4179 20.0998 12.6759 19.684L14.9215 16.064L12.6759 12.4441C12.4179 12.0282 12.5705 11.4962 13.0168 11.2558C13.463 11.0154 14.0339 11.1576 14.2919 11.5735L15.9996 14.3262L17.7073 11.5735C17.9653 11.1576 18.5362 11.0154 18.9825 11.2558C19.4287 11.4962 19.5813 12.0282 19.3234 12.4441L17.0777 16.064L19.3234 19.684C19.5814 20.0998 19.4287 20.6319 18.9825 20.8723C18.5362 21.1127 17.9653 20.9705 17.7073 20.5546L15.9996 17.8019L14.2919 20.5546Z" fill="white"/>
<defs>
<linearGradient id="paint0_linear_7161_18251" x1="8.30496" y1="-7.55182e-07" x2="26.1172" y2="36.2138" gradientUnits="userSpaceOnUse">
<stop stop-color="#96DEFF"/>
<stop offset="1" stop-color="#6BD0FF"/>
</linearGradient>
</defs>
</svg>
