<svg width="32" height="32" viewBox="0 0 32 32" fill="none" xmlns="http://www.w3.org/2000/svg">
<g clip-path="url(#clip0_7161_18247)">
<path fill-rule="evenodd" clip-rule="evenodd" d="M0 5.33333C0 2.38782 2.38781 0 5.33333 0H26.6667C29.6122 0 32 2.38781 32 5.33333V26.6667C32 29.6122 29.6122 32 26.6667 32H5.33333C2.38782 32 0 29.6122 0 26.6667V5.33333Z" fill="url(#paint0_linear_7161_18247)"/>
<g filter="url(#filter0_d_7161_18247)">
<path d="M5.72071 21.0469C5.52974 21.2378 5.2997 21.3333 5.03061 21.3333C4.76151 21.3333 4.52713 21.2378 4.32748 21.0469C4.13651 20.8559 4.04102 20.6215 4.04102 20.3438V12.5964C4.04102 12.2839 4.14953 12.0191 4.36654 11.8021C4.59224 11.5764 4.86134 11.4635 5.17384 11.4635H7.28321C9.86134 11.4635 11.1504 12.4965 11.1504 14.5625C11.1504 15.283 10.9768 15.895 10.6296 16.3984C10.2823 16.9019 9.82661 17.2665 9.26238 17.4922C8.70682 17.7179 8.06446 17.8307 7.33529 17.8307H6.1504C6.06359 17.8307 6.02019 17.8741 6.02019 17.9609V20.3438C6.02019 20.6215 5.92036 20.8559 5.72071 21.0469ZM6.02019 16.138C6.02019 16.2248 6.06359 16.2682 6.1504 16.2682H7.20509C8.54189 16.2682 9.21029 15.6997 9.21029 14.5625C9.21029 14.0069 9.04102 13.612 8.70248 13.3776C8.36394 13.1432 7.84311 13.026 7.13998 13.026H6.1504C6.06359 13.026 6.02019 13.0694 6.02019 13.1563V16.138Z" fill="white"/>
<path d="M13.8004 21.3333C13.4879 21.3333 13.2188 21.2248 12.9931 21.0078C12.7761 20.7821 12.6676 20.513 12.6676 20.2005V12.5964C12.6676 12.2839 12.7761 12.0191 12.9931 11.8021C13.2188 11.5764 13.4879 11.4635 13.8004 11.4635H15.3759C16.9211 11.4635 18.119 11.8715 18.9697 12.6875C19.829 13.5035 20.2587 14.7274 20.2587 16.3594C20.2587 17.9826 19.8334 19.2196 18.9827 20.0703C18.1407 20.9123 16.9731 21.3333 15.4801 21.3333H13.8004ZM14.6468 19.6146C14.6468 19.7014 14.6902 19.7448 14.777 19.7448H15.2587C17.2466 19.7448 18.2405 18.6163 18.2405 16.3594C18.2405 15.1962 17.9844 14.3542 17.4723 13.8333C16.9601 13.3038 16.2223 13.0391 15.2587 13.0391H14.777C14.6902 13.0391 14.6468 13.0825 14.6468 13.1693V19.6146Z" fill="white"/>
<path d="M23.5988 21.0469C23.4079 21.2378 23.1778 21.3333 22.9087 21.3333C22.6396 21.3333 22.4053 21.2378 22.2056 21.0469C22.0146 20.8559 21.9191 20.6215 21.9191 20.3438V12.5964C21.9191 12.2839 22.0277 12.0191 22.2447 11.8021C22.4704 11.5764 22.7395 11.4635 23.052 11.4635H27.1796C27.4053 11.4635 27.5962 11.546 27.7525 11.7109C27.9174 11.8672 27.9999 12.0582 27.9999 12.2839C27.9999 12.5095 27.9174 12.7049 27.7525 12.8698C27.5962 13.026 27.4053 13.1042 27.1796 13.1042H24.0285C23.9417 13.1042 23.8983 13.1476 23.8983 13.2344V15.5521C23.8983 15.6389 23.9417 15.6823 24.0285 15.6823H26.5806C26.8063 15.6823 26.9973 15.7648 27.1535 15.9297C27.3185 16.0859 27.4009 16.2813 27.4009 16.5156C27.4009 16.7413 27.3185 16.9366 27.1535 17.1016C26.9973 17.2578 26.8063 17.3359 26.5806 17.3359H24.0285C23.9417 17.3359 23.8983 17.3793 23.8983 17.4661V20.3438C23.8983 20.6215 23.7985 20.8559 23.5988 21.0469Z" fill="white"/>
</g>
</g>
<defs>
<filter id="filter0_d_7161_18247" x="1.04102" y="8.46354" width="29.959" height="15.8698" filterUnits="userSpaceOnUse" color-interpolation-filters="sRGB">
<feFlood flood-opacity="0" result="BackgroundImageFix"/>
<feColorMatrix in="SourceAlpha" type="matrix" values="0 0 0 0 0 0 0 0 0 0 0 0 0 0 0 0 0 0 127 0" result="hardAlpha"/>
<feOffset/>
<feGaussianBlur stdDeviation="1.5"/>
<feComposite in2="hardAlpha" operator="out"/>
<feColorMatrix type="matrix" values="0 0 0 0 0 0 0 0 0 0 0 0 0 0 0 0 0 0 0.3 0"/>
<feBlend mode="overlay" in2="BackgroundImageFix" result="effect1_dropShadow_7161_18247"/>
<feBlend mode="normal" in="SourceGraphic" in2="effect1_dropShadow_7161_18247" result="shape"/>
</filter>
<linearGradient id="paint0_linear_7161_18247" x1="3.4668" y1="3.87445e-08" x2="27.4668" y2="36" gradientUnits="userSpaceOnUse">
<stop stop-color="#FFA6A7"/>
<stop offset="1" stop-color="#FF6668"/>
</linearGradient>
<clipPath id="clip0_7161_18247">
<rect width="32" height="32" fill="white"/>
</clipPath>
</defs>
</svg>
