<svg width="24" height="24" viewBox="0 0 24 24" fill="none" xmlns="http://www.w3.org/2000/svg">
<path fill-rule="evenodd" clip-rule="evenodd" d="M16.8539 10.033C16.5898 7.77466 14.5528 5.9498 12 5.9498C9.44731 5.9498 7.4103 7.77466 7.14615 10.033L7.07562 10.636L6.49878 10.8252C6.38249 10.8634 6.26772 10.9067 6.15483 10.9551L5.81057 11.1026C4.47954 11.6731 3.61655 12.9818 3.61655 14.4299C3.61655 16.4291 5.23727 18.0498 7.23657 18.0498H16.7635C18.7628 18.0498 20.3835 16.4291 20.3835 14.4299C20.3835 12.9818 19.5205 11.6731 18.1895 11.1026L17.8453 10.9551C17.7324 10.9067 17.6176 10.8634 17.5013 10.8252L16.9245 10.636L16.8539 10.033ZM5.06213 9.35625L5.3549 9.23078C5.9935 6.24303 8.7568 4.0498 12 4.0498C15.2433 4.0498 18.0066 6.24303 18.6452 9.23077L18.938 9.35625C20.9676 10.2261 22.2835 12.2217 22.2835 14.4299C22.2835 17.4785 19.8121 19.9498 16.7635 19.9498H7.23657C4.18796 19.9498 1.71655 17.4785 1.71655 14.4299C1.71655 12.2217 3.03252 10.2261 5.06213 9.35625ZM10.2 10.8831V15.1169C10.2 15.5056 10.6239 15.7456 10.9572 15.5457L14.4854 13.4287C14.809 13.2345 14.809 12.7655 14.4854 12.5713L10.9572 10.4543C10.6239 10.2544 10.2 10.4944 10.2 10.8831Z" fill="white"/>
</svg>
