<svg width="32" height="32" viewBox="0 0 32 32" fill="none" xmlns="http://www.w3.org/2000/svg">
<path d="M0 5.33333C0 2.38782 2.38781 0 5.33333 0H26.6667C29.6122 0 32 2.38781 32 5.33333V26.6667C32 29.6122 29.6122 32 26.6667 32H5.33333C2.38782 32 0 29.6122 0 26.6667V5.33333Z" fill="url(#paint0_linear_7161_18235)"/>
<g filter="url(#filter0_d_7161_18235)">
<path d="M21.8731 14.6531C22.9303 15.2752 22.9303 16.7248 21.8731 17.3469L13.2471 22.4227C12.1235 23.0839 10.666 22.3233 10.666 21.0758L10.666 10.9242C10.666 9.67667 12.1235 8.91612 13.2471 9.5773L21.8731 14.6531Z" fill="white"/>
</g>
<defs>
<filter id="filter0_d_7161_18235" x="7.66602" y="6.33333" width="18" height="19.3333" filterUnits="userSpaceOnUse" color-interpolation-filters="sRGB">
<feFlood flood-opacity="0" result="BackgroundImageFix"/>
<feColorMatrix in="SourceAlpha" type="matrix" values="0 0 0 0 0 0 0 0 0 0 0 0 0 0 0 0 0 0 127 0" result="hardAlpha"/>
<feOffset/>
<feGaussianBlur stdDeviation="1.5"/>
<feComposite in2="hardAlpha" operator="out"/>
<feColorMatrix type="matrix" values="0 0 0 0 0 0 0 0 0 0 0 0 0 0 0 0 0 0 0.3 0"/>
<feBlend mode="overlay" in2="BackgroundImageFix" result="effect1_dropShadow_7161_18235"/>
<feBlend mode="normal" in="SourceGraphic" in2="effect1_dropShadow_7161_18235" result="shape"/>
</filter>
<linearGradient id="paint0_linear_7161_18235" x1="27.7333" y1="39.4667" x2="-2.98023e-08" y2="-13.3333" gradientUnits="userSpaceOnUse">
<stop stop-color="#3F85FF"/>
<stop offset="1" stop-color="#A8C8FF"/>
</linearGradient>
</defs>
</svg>
