<svg width="36" height="36" viewBox="0 0 36 36" fill="none" xmlns="http://www.w3.org/2000/svg">
<circle cx="18" cy="18" r="18" fill="#D9D9D9"/>
<circle cx="18" cy="18" r="18" fill="url(#paint0_linear_1902_10027)"/>
<circle cx="18" cy="18" r="18" fill="url(#paint1_radial_1902_10027)" fill-opacity="0.6"/>
<circle cx="18" cy="18" r="18" fill="url(#paint2_radial_1902_10027)" fill-opacity="0.45"/>
<circle cx="18" cy="18" r="18" fill="white" fill-opacity="0.1"/>
<path fill-rule="evenodd" clip-rule="evenodd" d="M10.4107 10.4068V17.0951H15.5561V10.4068H10.4107ZM8.61328 10.1445C8.61328 9.11483 9.57818 8.60938 10.3131 8.60938H15.6538C16.3887 8.60938 17.3536 9.11483 17.3536 10.1445V17.3574C17.3536 18.3871 16.3887 18.8925 15.6538 18.8925H10.3131C9.57818 18.8925 8.61328 18.3871 8.61328 17.3574V10.1445ZM20.6977 9.89509C20.6977 9.39803 21.1007 8.99509 21.5977 8.99509H24.2977C25.7889 8.99509 26.9977 10.2039 26.9977 11.6951V14.3951C26.9977 14.8921 26.5948 15.2951 26.0977 15.2951C25.6007 15.2951 25.1977 14.8921 25.1977 14.3951V11.6951C25.1977 11.198 24.7948 10.7951 24.2977 10.7951H21.5977C21.1007 10.7951 20.6977 10.3921 20.6977 9.89509ZM9.89787 20.6931C10.3949 20.6931 10.7979 21.096 10.7979 21.5931V24.2931C10.7979 24.7901 11.2008 25.1931 11.6979 25.1931H14.3979C14.8949 25.1931 15.2979 25.596 15.2979 26.0931C15.2979 26.5901 14.8949 26.9931 14.3979 26.9931H11.6979C10.2067 26.9931 8.99787 25.7842 8.99787 24.2931V21.5931C8.99787 21.096 9.40081 20.6931 9.89787 20.6931ZM22.9477 23.3931H26.0977V19.7931H19.7977V23.3931H22.9477ZM23.8477 26.0931V25.1931H26.9977C27.4948 25.1931 27.8977 24.7901 27.8977 24.2931V18.8931C27.8977 18.396 27.4948 17.9931 26.9977 17.9931H18.8977C18.4007 17.9931 17.9977 18.396 17.9977 18.8931V24.2931C17.9977 24.7901 18.4007 25.1931 18.8977 25.1931H22.0477V26.0931H20.2477C19.7507 26.0931 19.3477 26.496 19.3477 26.9931C19.3477 27.4901 19.7507 27.8931 20.2477 27.8931L22.9477 27.8931L25.6477 27.8931C26.1448 27.8931 26.5477 27.4901 26.5477 26.9931C26.5477 26.496 26.1448 26.0931 25.6477 26.0931H23.8477ZM12.212 14.7808C11.7156 14.7808 11.3133 15.1832 11.3133 15.6795C11.3133 16.1759 11.7156 16.5782 12.212 16.5782H13.7549C14.2512 16.5782 14.6536 16.1759 14.6536 15.6795C14.6536 15.1832 14.2512 14.7808 13.7549 14.7808H12.212Z" fill="white" fill-opacity="0.9"/>
<defs>
<linearGradient id="paint0_linear_1902_10027" x1="10.9688" y1="1.125" x2="25.5937" y2="34.3125" gradientUnits="userSpaceOnUse">
<stop stop-color="#4797FF"/>
<stop offset="0.671875" stop-color="#3F85FF"/>
<stop offset="1" stop-color="#3F85FF"/>
</linearGradient>
<radialGradient id="paint1_radial_1902_10027" cx="0" cy="0" r="1" gradientUnits="userSpaceOnUse" gradientTransform="translate(6.1875 4.5) rotate(49.7636) scale(14.3685)">
<stop stop-color="#62F6FF"/>
<stop offset="1" stop-color="#55ADFF" stop-opacity="0"/>
</radialGradient>
<radialGradient id="paint2_radial_1902_10027" cx="0" cy="0" r="1" gradientUnits="userSpaceOnUse" gradientTransform="translate(31.7813 31.7813) rotate(-132.207) scale(16.327)">
<stop offset="0.150901" stop-color="#BCD4FF"/>
<stop offset="1" stop-color="#BCD4FF" stop-opacity="0"/>
</radialGradient>
</defs>
</svg>
