<svg width="73" height="73" viewBox="0 0 73 73" fill="none" xmlns="http://www.w3.org/2000/svg">
<g filter="url(#filter0_d_14996_26)">
<path d="M17.2727 31.0909C17.2727 20.5975 25.7793 12.0909 36.2727 12.0909C46.7661 12.0909 55.2727 20.5975 55.2727 31.0909C55.2727 41.5844 46.7661 50.0909 36.2727 50.0909C25.7793 50.0909 17.2727 41.5844 17.2727 31.0909Z" fill="#D9D9D9"/>
<path d="M17.2727 31.0909C17.2727 20.5975 25.7793 12.0909 36.2727 12.0909C46.7661 12.0909 55.2727 20.5975 55.2727 31.0909C55.2727 41.5844 46.7661 50.0909 36.2727 50.0909C25.7793 50.0909 17.2727 41.5844 17.2727 31.0909Z" fill="url(#paint0_linear_14996_26)"/>
<path d="M17.2727 31.0909C17.2727 20.5975 25.7793 12.0909 36.2727 12.0909C46.7661 12.0909 55.2727 20.5975 55.2727 31.0909C55.2727 41.5844 46.7661 50.0909 36.2727 50.0909C25.7793 50.0909 17.2727 41.5844 17.2727 31.0909Z" fill="url(#paint1_radial_14996_26)" fill-opacity="0.5"/>
<path d="M17.2727 31.0909C17.2727 20.5975 25.7793 12.0909 36.2727 12.0909C46.7661 12.0909 55.2727 20.5975 55.2727 31.0909C55.2727 41.5844 46.7661 50.0909 36.2727 50.0909C25.7793 50.0909 17.2727 41.5844 17.2727 31.0909Z" fill="url(#paint2_radial_14996_26)" fill-opacity="0.3"/>
<path d="M31.6154 32.9571C30.6191 30.2998 31.9233 27.3537 34.5285 26.3769C37.1338 25.4 40.0535 26.7623 41.0498 29.4197C41.5119 30.652 41.4792 31.9464 41.0514 33.0777" stroke="white" stroke-opacity="0.9" stroke-width="1.5" stroke-linecap="round" stroke-linejoin="round"/>
<path d="M29.0412 38.1999C26.17 35.3146 25.2274 30.8449 27.0116 26.92C29.3145 21.8542 35.288 19.6144 40.3539 21.9173C42.837 23.0462 44.6412 25.057 45.5641 27.4105C46.524 29.8583 46.5306 32.6769 45.3565 35.2595C44.7117 36.6779 43.7792 37.8748 42.6593 38.8124" stroke="white" stroke-opacity="0.5" stroke-width="1.5" stroke-linecap="round" stroke-linejoin="round"/>
<path d="M38.8636 38.8636L36.2727 41.4546L33.6818 38.8636" stroke="white" stroke-width="2.01515" stroke-linecap="round" stroke-linejoin="round"/>
<path d="M36.2727 32.3864V41.0227" stroke="white" stroke-width="2.07273" stroke-linecap="round" stroke-linejoin="round"/>
</g>
<defs>
<filter id="filter0_d_14996_26" x="-2.28882e-05" y="3.24249e-05" width="72.5455" height="72.5455" filterUnits="userSpaceOnUse" color-interpolation-filters="sRGB">
<feFlood flood-opacity="0" result="BackgroundImageFix"/>
<feColorMatrix in="SourceAlpha" type="matrix" values="0 0 0 0 0 0 0 0 0 0 0 0 0 0 0 0 0 0 127 0" result="hardAlpha"/>
<feOffset dy="5.18182"/>
<feGaussianBlur stdDeviation="8.63636"/>
<feComposite in2="hardAlpha" operator="out"/>
<feColorMatrix type="matrix" values="0 0 0 0 0 0 0 0 0 0 0 0 0 0 0 0 0 0 0.07 0"/>
<feBlend mode="normal" in2="BackgroundImageFix" result="effect1_dropShadow_14996_26"/>
<feBlend mode="normal" in="SourceGraphic" in2="effect1_dropShadow_14996_26" result="shape"/>
</filter>
<linearGradient id="paint0_linear_14996_26" x1="28.8508" y1="13.2784" x2="44.2883" y2="48.3097" gradientUnits="userSpaceOnUse">
<stop stop-color="#4797FF"/>
<stop offset="0.671875" stop-color="#0F7DFF"/>
<stop offset="1" stop-color="#5686FF"/>
</linearGradient>
<radialGradient id="paint1_radial_14996_26" cx="0" cy="0" r="1" gradientUnits="userSpaceOnUse" gradientTransform="translate(23.804 16.8409) rotate(49.7636) scale(15.1668)">
<stop stop-color="#62F6FF"/>
<stop offset="1" stop-color="#55ADFF" stop-opacity="0"/>
</radialGradient>
<radialGradient id="paint2_radial_14996_26" cx="0" cy="0" r="1" gradientUnits="userSpaceOnUse" gradientTransform="translate(50.8196 45.6378) rotate(-132.207) scale(17.2341)">
<stop offset="0.150901" stop-color="#BCD4FF"/>
<stop offset="1" stop-color="#BCD4FF" stop-opacity="0"/>
</radialGradient>
</defs>
</svg>
