<svg width="32" height="32" viewBox="0 0 32 32" fill="none" xmlns="http://www.w3.org/2000/svg">
<path d="M32 16C32 7.16344 24.8366 0 16 0H0V32H16C24.8366 32 32 24.8366 32 16Z" fill="white"/>
<path d="M32 16C32 7.16344 24.8366 0 16 0H0V32H16C24.8366 32 32 24.8366 32 16Z" fill="url(#paint0_linear_1899_11485)"/>
<path d="M32 16C32 7.16344 24.8366 0 16 0H0V32H16C24.8366 32 32 24.8366 32 16Z" fill="url(#paint1_radial_1899_11485)" fill-opacity="0.5"/>
<path d="M32 16C32 7.16344 24.8366 0 16 0H0V32H16C24.8366 32 32 24.8366 32 16Z" fill="url(#paint2_radial_1899_11485)" fill-opacity="0.3"/>
<path d="M19.7074 17.4856C20.5006 15.3702 19.4623 13.025 17.3885 12.2473C15.3146 11.4697 12.9903 12.5542 12.1972 14.6696C11.8294 15.6506 11.8554 16.681 12.1959 17.5816" stroke="white" stroke-opacity="0.9" stroke-width="1.19408" stroke-linecap="round" stroke-linejoin="round"/>
<path d="M21.7567 21.6592C24.0423 19.3623 24.7926 15.8042 23.3723 12.6798C21.5391 8.64711 16.7838 6.86413 12.7512 8.69736C10.7745 9.59598 9.33827 11.1967 8.60357 13.0703C7.83946 15.0188 7.83418 17.2626 8.76879 19.3185C9.28208 20.4476 10.0245 21.4003 10.9159 22.1467" stroke="white" stroke-opacity="0.5" stroke-width="1.19408" stroke-linecap="round" stroke-linejoin="round"/>
<path d="M13.9375 22.1875L16 24.25L18.0625 22.1875" stroke="white" stroke-width="1.60417" stroke-linecap="round" stroke-linejoin="round"/>
<path d="M16 17.0312V23.9062" stroke="white" stroke-width="1.65" stroke-linecap="round" stroke-linejoin="round"/>
<defs>
<linearGradient id="paint0_linear_1899_11485" x1="22.25" y1="1" x2="9.25" y2="30.5" gradientUnits="userSpaceOnUse">
<stop stop-color="#4797FF"/>
<stop offset="0.671875" stop-color="#0F7DFF"/>
<stop offset="1" stop-color="#5686FF"/>
</linearGradient>
<radialGradient id="paint1_radial_1899_11485" cx="0" cy="0" r="1" gradientUnits="userSpaceOnUse" gradientTransform="translate(26.5 4) rotate(130.236) scale(12.772)">
<stop stop-color="#62F6FF"/>
<stop offset="1" stop-color="#55ADFF" stop-opacity="0"/>
</radialGradient>
<radialGradient id="paint2_radial_1899_11485" cx="0" cy="0" r="1" gradientUnits="userSpaceOnUse" gradientTransform="translate(3.75 28.25) rotate(-47.7927) scale(14.5129)">
<stop offset="0.150901" stop-color="#BCD4FF"/>
<stop offset="1" stop-color="#BCD4FF" stop-opacity="0"/>
</radialGradient>
</defs>
</svg>
