<svg width="90" height="30" viewBox="0 0 90 30" fill="none" xmlns="http://www.w3.org/2000/svg">
<path d="M5.26393 0H24.7361C27.6433 0 30 2.35674 30 5.26393V24.7361C30 27.6433 27.6433 30 24.7361 30H5.26393C2.35674 30 0 27.6433 0 24.7361V5.26393C0 2.35674 2.35674 0 5.26393 0Z" fill="#3F85FF"/>
<path fill-rule="evenodd" clip-rule="evenodd" d="M12.7105 10.4431C13.2536 9.97489 18.1119 5.91417 25.9226 3.49289C25.9226 3.49289 25.9563 3.48169 25.9927 3.48169C26.0513 3.48169 26.1169 3.51099 26.059 3.66439C26.059 3.66439 24.0245 6.49938 22.8877 8.80866C22.8877 8.80866 22.8394 8.9314 22.99 8.8771C22.99 8.8771 23.278 8.79485 23.5698 8.73987C23.5698 8.73987 23.78 8.69983 23.6378 8.91138C23.6378 8.91138 21.7284 11.3863 20.1958 14.1635C20.2288 14.1599 20.262 14.1565 20.2955 14.153C20.2955 14.153 24.5351 14.7703 27.4904 16.6565C27.4904 16.6565 27.6608 16.828 27.3881 16.8622C27.3881 16.8622 21.144 17.6646 17.0635 19.0753C17.5678 20.1303 18.1029 21.2898 18.67 22.5656C19.4224 24.0219 20.2767 25.8074 20.9441 27.5673C20.9441 27.5673 20.985 27.8758 20.7054 27.6359C20.7054 27.6359 17.8751 24.1206 13.8514 21.7371C13.7526 21.6786 13.5696 21.5975 13.3259 21.4895C11.6886 20.7637 7.30745 18.8216 7.236 14.3299C7.23054 13.9831 7.29086 13.552 7.35403 13.1005C7.47526 12.234 7.60698 11.2926 7.30427 10.7289C7.30427 10.7289 7.03154 9.85452 5.70151 8.73987C5.70151 8.73987 4.41721 7.88259 2.32582 6.92236C2.32582 6.92236 2.10414 6.81387 1.95074 6.75097C1.95074 6.75097 1.87172 6.58366 2.05297 6.61375C2.05297 6.61375 5.30515 7.56538 6.48596 7.98542C6.48596 7.98542 6.73832 8.06767 6.99746 7.95115C6.99746 7.95115 8.79326 7.21389 10.3733 8.53421L10.3744 8.53557C10.5519 8.62776 11.1943 9.04634 12.3744 10.693C12.3833 10.6857 12.3926 10.6789 12.4019 10.6721C12.41 10.6663 12.418 10.6604 12.4257 10.6542C12.4649 10.6218 12.5062 10.5906 12.5491 10.5607C12.5583 10.5538 12.5675 10.5469 12.5767 10.54C12.6208 10.507 12.6648 10.4741 12.7105 10.4431Z" fill="white"/>
<mask id="mask0_7507_4912" style="mask-type:luminance" maskUnits="userSpaceOnUse" x="36" y="1" width="53" height="28">
<path fill-rule="evenodd" clip-rule="evenodd" d="M36 28.125H88.5V1.875H36V28.125Z" fill="white"/>
</mask>
<g mask="url(#mask0_7507_4912)">
<path fill-rule="evenodd" clip-rule="evenodd" d="M38.948 21.8505C38.8435 23.131 38.5454 23.9134 37.9445 24.6034C37.5607 25.0442 36.9936 25.4849 36.4674 25.7824C36.2283 25.9176 36.1255 26.2243 36.2653 26.4608L37.0519 27.7911C37.1645 27.9815 37.3997 28.0634 37.6002 27.97C39.8754 26.9112 41.4569 24.5694 41.4569 21.8505H38.948Z" fill="#212429"/>
<path fill-rule="evenodd" clip-rule="evenodd" d="M43.8711 13.2555C43.8711 13.504 44.0726 13.7055 44.3211 13.7055H54.5859C54.8345 13.7055 55.0359 13.504 55.0359 13.2555V12.1067C55.0359 11.8582 54.8345 11.6567 54.5859 11.6567H44.3211C44.0726 11.6567 43.8711 11.8582 43.8711 12.1067V13.2555Z" fill="#212429"/>
<path fill-rule="evenodd" clip-rule="evenodd" d="M66.0137 3.47364C66.0137 3.72217 66.2151 3.92364 66.4637 3.92364H86.7018C86.9503 3.92364 87.1518 3.72217 87.1518 3.47364V2.32476C87.1518 2.07623 86.9503 1.87476 86.7018 1.87476H66.4637C66.2151 1.87476 66.0137 2.07623 66.0137 2.32476V3.47364Z" fill="#212429"/>
<path fill-rule="evenodd" clip-rule="evenodd" d="M68.6797 10.1323C68.6797 10.3808 68.8812 10.5823 69.1297 10.5823H73.3731C73.6217 10.5823 73.8231 10.3808 73.8231 10.1323V9.11162C73.8231 8.86309 73.6217 8.66162 73.3731 8.66162H69.1297C68.8812 8.66162 68.6797 8.86309 68.6797 9.11162V10.1323Z" fill="#212429"/>
<path fill-rule="evenodd" clip-rule="evenodd" d="M68.6797 13.3335C68.6797 13.582 68.8812 13.7835 69.1297 13.7835H73.3731C73.6217 13.7835 73.8231 13.582 73.8231 13.3335V12.3128C73.8231 12.0643 73.6217 11.8628 73.3731 11.8628H69.1297C68.8812 11.8628 68.6797 12.0643 68.6797 12.3128V13.3335Z" fill="#212429"/>
<path fill-rule="evenodd" clip-rule="evenodd" d="M79.3418 10.1323C79.3418 10.3808 79.5433 10.5823 79.7918 10.5823H84.0352C84.2838 10.5823 84.4852 10.3808 84.4852 10.1323V9.11162C84.4852 8.86309 84.2838 8.66162 84.0352 8.66162H79.7918C79.5433 8.66162 79.3418 8.86309 79.3418 9.11162V10.1323Z" fill="#212429"/>
<path fill-rule="evenodd" clip-rule="evenodd" d="M79.3418 13.3335C79.3418 13.582 79.5433 13.7835 79.7918 13.7835H84.0352C84.2838 13.7835 84.4852 13.582 84.4852 13.3335V12.3128C84.4852 12.0643 84.2838 11.8628 84.0352 11.8628H79.7918C79.5433 11.8628 79.3418 12.0643 79.3418 12.3128V13.3335Z" fill="#212429"/>
<path fill-rule="evenodd" clip-rule="evenodd" d="M69.7461 22.297C69.7461 22.5455 69.9476 22.747 70.1961 22.747H82.7817C83.0302 22.747 83.2317 22.5455 83.2317 22.297V21.1482C83.2317 20.8997 83.0302 20.6982 82.7817 20.6982H70.1961C69.9476 20.6982 69.7461 20.8997 69.7461 21.1482V22.297Z" fill="#212429"/>
<path fill-rule="evenodd" clip-rule="evenodd" d="M60.7768 27.6749C60.7768 27.9234 60.5753 28.1249 60.3268 28.1249H46.5734C44.3631 28.1249 42.2643 27.133 40.8341 25.4126L39.5762 23.8993L41.0188 22.1705L42.2829 23.7976C43.4013 25.237 45.1027 26.0761 46.9025 26.0761H60.3268C60.5753 26.0761 60.7768 26.2776 60.7768 26.5261V27.6749Z" fill="#212429"/>
<path fill-rule="evenodd" clip-rule="evenodd" d="M88.5012 12.3091C88.5012 12.5576 88.2997 12.7591 88.0512 12.7591H86.5676C86.3191 12.7591 86.1176 12.5576 86.1176 12.3091V7.44504C86.1176 7.33894 86.0334 7.25299 85.9294 7.25299H67.2377C67.1338 7.25299 67.0496 7.33894 67.0496 7.44504V12.3091C67.0496 12.5576 66.8481 12.7591 66.5996 12.7591H65.116C64.8675 12.7591 64.666 12.5576 64.666 12.3091V6.1645C64.666 5.63414 65.0873 5.2041 65.6069 5.2041H87.5604C88.08 5.2041 88.5012 5.63414 88.5012 6.1645V12.3091Z" fill="#212429"/>
<path fill-rule="evenodd" clip-rule="evenodd" d="M68.683 26.0124H84.4833C84.5889 26.0124 84.6746 25.9265 84.6746 25.8204V18.0094C84.6746 17.9033 84.5889 17.8172 84.4833 17.8172H68.683C68.5773 17.8172 68.4917 17.9033 68.4917 18.0094V25.8204C68.4917 25.9265 68.5773 26.0124 68.683 26.0124ZM86.2424 28.0611H66.9235C66.4037 28.0611 65.9824 27.631 65.9824 27.1008V16.7287C65.9824 16.1983 66.4037 15.7683 66.9235 15.7683H86.2424C86.762 15.7683 87.1833 16.1983 87.1833 16.7287V27.1008C87.1833 27.631 86.762 28.0611 86.2424 28.0611Z" fill="#212429"/>
<path fill-rule="evenodd" clip-rule="evenodd" d="M75.3281 14.0377C75.3281 14.2862 75.5296 14.4877 75.7781 14.4877H77.387C77.6356 14.4877 77.837 14.2862 77.837 14.0377V3.47546H75.3281V14.0377Z" fill="#212429"/>
<path fill-rule="evenodd" clip-rule="evenodd" d="M49.9249 24.0758C49.9249 24.3243 49.7235 24.5258 49.4749 24.5258H47.866C47.6175 24.5258 47.416 24.3243 47.416 24.0758V3.58972H49.9249V24.0758Z" fill="#212429"/>
<path fill-rule="evenodd" clip-rule="evenodd" d="M75.3281 26.6951H77.837V16.1951H75.3281V26.6951Z" fill="#212429"/>
<path fill-rule="evenodd" clip-rule="evenodd" d="M41.4266 6.25703C41.4891 6.53808 41.2753 6.80471 40.9874 6.80471H39.1028C38.8847 6.80471 38.698 6.64833 38.6598 6.43363L37.9419 2.40368C37.8928 2.12791 38.1048 1.87476 38.3849 1.87476H40.0913C40.3022 1.87476 40.4848 2.02122 40.5306 2.22708L41.4266 6.25703Z" fill="#212429"/>
<path fill-rule="evenodd" clip-rule="evenodd" d="M38.9479 22.747H41.4541L41.4566 9.62217C41.4568 9.09026 41.0334 8.65966 40.5124 8.66163L36.5112 8.6729C36.2632 8.6736 36.0625 8.87487 36.0625 9.1229V10.2568C36.0625 10.5054 36.264 10.7068 36.5125 10.7068H38.7597C38.8636 10.7068 38.9479 10.7929 38.9479 10.899V22.747Z" fill="#212429"/>
<path fill-rule="evenodd" clip-rule="evenodd" d="M59.396 20.6341C59.0825 19.5671 58.8943 18.628 58.8316 16.3445V3.09136C58.8316 2.561 58.4103 2.1311 57.8907 2.1311H44.1023C43.8538 2.1311 43.6523 2.33258 43.6523 2.5811V3.72985C43.6523 3.97838 43.8538 4.17985 44.1023 4.17985H56.1344C56.2383 4.17985 56.3225 4.2658 56.3225 4.3719V16.3445C56.354 18.2652 56.3576 19.5973 56.8871 21.4664C57.2269 22.6658 57.8854 23.7086 58.2752 24.257C58.4471 24.4988 58.7733 24.5538 59.0267 24.3996L60.4603 23.5274C60.6935 23.3856 60.7499 23.0694 60.5901 22.8481C60.2234 22.3403 59.6341 21.4441 59.396 20.6341Z" fill="#212429"/>
</g>
</svg>
