<svg width="16" height="16" viewBox="0 0 16 16" fill="none" xmlns="http://www.w3.org/2000/svg">
<path fill-rule="evenodd" clip-rule="evenodd" d="M2.77234 4.97094C4.40637 2.14072 8.02536 1.17101 10.8556 2.80504C12.2205 3.59306 13.1522 4.84168 13.5686 6.24222C13.6793 6.61452 13.7535 6.99736 13.7897 7.3849L11.7132 7.38492L14.2683 10.9333C14.5691 10.2393 14.7072 9.41277 14.7692 8.73212L14.7699 8.72569C14.802 8.4477 14.817 8.16919 14.8152 7.89169C14.8211 7.57942 14.8122 7.38489 14.8122 7.38489L14.7934 7.38489C14.7547 6.90025 14.6652 6.4216 14.5271 5.95724C14.0407 4.32129 12.9507 2.85996 11.3556 1.93902C8.04707 0.0288467 3.81649 1.16243 1.90632 4.47094C-0.00385284 7.77946 1.12973 12.01 4.43824 13.9202C6.99496 15.3963 10.1012 15.0544 12.2621 13.298L12.6501 12.9826L12.0193 12.2066L11.6313 12.522C9.78154 14.0255 7.12408 14.3162 4.93824 13.0542C2.10802 11.4202 1.13831 7.80116 2.77234 4.97094Z" fill="white"/>
</svg>
