<svg width="14" height="14" viewBox="0 0 14 14" fill="none" xmlns="http://www.w3.org/2000/svg">
<path fill-rule="evenodd" clip-rule="evenodd" d="M14 6.99999C14 10.8659 10.8661 14 6.99998 14C3.13383 14 0 10.8659 0 6.99999C0 3.13409 3.13383 0 7 0C10.8662 0 14 3.13409 14 6.99999ZM13.125 6.99997C13.125 3.61725 10.3825 0.874973 7 0.874973C3.61747 0.874973 0.874972 3.61729 0.874991 6.99997C0.874991 10.3827 3.61749 13.125 6.99998 13.125C10.3825 13.125 13.125 10.3827 13.125 6.99997ZM7.4375 5.68751H6.56248V10.0625H7.43749L7.4375 5.68751ZM6.56248 3.93751H7.4375V4.81252H6.56248V3.93751Z" fill="#6C757D"/>
</svg>
