<?xml version="1.0" encoding="UTF-8"?>
<svg width="128px" height="128px" viewBox="0 0 128 128" version="1.1" xmlns="http://www.w3.org/2000/svg" xmlns:xlink="http://www.w3.org/1999/xlink">
    <title>128</title>
    <g id="128" stroke="none" stroke-width="1" fill="none" fill-rule="evenodd">
        <path d="M117.768457,2.67132704 C121.027716,4.41439796 123.585602,6.97228371 125.328673,10.231543 C127.071744,13.4908022 128,16.7236646 128,25.638852 L128,102.361148 C128,111.276335 127.071744,114.509198 125.328673,117.768457 C123.585602,121.027716 121.027716,123.585602 117.768457,125.328673 C114.509198,127.071744 111.276335,128 102.361148,128 L25.638852,128 C16.7236646,128 13.4908022,127.071744 10.231543,125.328673 C6.97228371,123.585602 4.41439796,121.027716 2.67132704,117.768457 C0.960535203,114.569554 0.0346592849,111.39608 0.000954275573,102.850626 L6.90560205e-16,25.638852 C-4.01235366e-16,16.7236646 0.928256111,13.4908022 2.67132704,10.231543 C4.41439796,6.97228371 6.97228371,4.41439796 10.231543,2.67132704 C13.4304456,0.960535203 16.6039199,0.0346592849 25.1493736,0.000954275573 L102.361148,1.03584031e-15 C111.276335,-6.01853049e-16 114.509198,0.928256111 117.768457,2.67132704 Z M105.7738,34.0001 L69.9998,34.0001 C68.8958,34.0001 67.9998,34.8961 67.9998,36.0001 L67.9998,92.0001 C67.9998,93.1041 68.8958,94.0001 69.9998,94.0001 L105.7738,94.0001 C106.9898,94.0001 107.9748,93.0151 107.9748,91.8001 C107.9748,91.3491 107.8358,90.9081 107.5768,90.5381 L88.9998,64.0001 L107.5768,37.4611 C107.8358,37.0921 107.9748,36.6511 107.9748,36.2001 C107.9748,34.9851 106.9898,34.0001 105.7738,34.0001 Z M56.2966,35.0179 L39.9996,61.4999 L23.7026,35.0179 C23.1246,34.0769 21.8926,33.7839 20.9516,34.3629 C20.3606,34.7269 19.9996,35.3719 19.9996,36.0659 L19.9996,91.9999 C19.9996,93.1049 20.8956,93.9999 21.9996,93.9999 L57.9996,93.9999 C59.1046,93.9999 59.9996,93.1049 59.9996,91.9999 L59.9996,36.0659 C59.9996,35.3719 59.6396,34.7269 59.0486,34.3629 C58.1076,33.7839 56.8756,34.0769 56.2966,35.0179 Z" id="形状结合" fill="#1890FF"></path>
    </g>
</svg>