<svg preserveAspectRatio="none" width="100%" height="100%" overflow="visible" style="display: block;" viewBox="0 0 46.8 43.3831" fill="none" xmlns="http://www.w3.org/2000/svg">
<g id="&#232;&#132;&#145;&#232;&#138;&#177;">
<mask id="mask0_0_68" style="mask-type:alpha" maskUnits="userSpaceOnUse" x="0" y="0" width="47" height="44">
<path id="Union" d="M35.0997 1.4266C38.9014 3.62149 40.8349 7.80878 40.344 11.908C44.14 13.5323 46.7999 17.3016 46.8 21.6917C46.7999 26.0816 44.1398 29.8494 40.3441 31.4737C40.8355 35.5733 38.902 39.7615 35.1 41.9566C31.2981 44.1516 26.7047 43.7319 23.4002 41.2567C20.0955 43.7319 15.5022 44.1516 11.7003 41.9567C7.89841 39.7617 5.96459 35.574 6.45581 31.4745C2.66004 29.8502 0.000110639 26.0815 0 21.6916C0.00011592 17.3017 2.6599 13.5331 6.45568 11.9089C5.96458 7.80949 7.89826 3.62173 11.7 1.4267C15.5017 -0.768146 20.0951 -0.349071 23.3996 2.12584C26.7042 -0.349242 31.2978 -0.768275 35.0997 1.4266Z" fill="var(--fill-0, black)"/>
</mask>
<g mask="url(#mask0_0_68)">
<path id="Union_2" d="M35.0997 1.4266C38.9014 3.62149 40.8349 7.80878 40.344 11.908C44.14 13.5323 46.7999 17.3016 46.8 21.6917C46.7999 26.0816 44.1398 29.8494 40.3441 31.4737C40.8355 35.5733 38.902 39.7615 35.1 41.9566C31.2981 44.1516 26.7047 43.7319 23.4002 41.2567C20.0955 43.7319 15.5022 44.1516 11.7003 41.9567C7.89841 39.7617 5.96459 35.574 6.45581 31.4745C2.66004 29.8502 0.000110639 26.0815 0 21.6916C0.00011592 17.3017 2.6599 13.5331 6.45568 11.9089C5.96458 7.80949 7.89826 3.62173 11.7 1.4267C15.5017 -0.768146 20.0951 -0.349071 23.3996 2.12584C26.7042 -0.349242 31.2978 -0.768275 35.0997 1.4266Z" fill="var(--fill-0, #72768B)" fill-opacity="0.32"/>
</g>
</g>
</svg>
