<svg width="24" height="24" viewBox="0 0 24 24" fill="none" xmlns="http://www.w3.org/2000/svg">
<g clip-path="url(#clip0_7502_2106)">
<path d="M4.62695 10.3198V18.8132C4.62695 19.0798 4.84029 19.2932 5.13362 19.2932H18.867C19.1336 19.2932 19.3736 19.0798 19.3736 18.8132V10.3198C19.3736 10.0532 19.1603 9.83984 18.867 9.83984C18.6003 9.83984 18.3603 10.0532 18.3603 10.3198V18.3065H5.61362V10.3198C5.61362 10.0532 5.40029 9.83984 5.10695 9.83984C4.81362 9.83984 4.62695 10.0532 4.62695 10.3198Z" fill="#898E97"/>
<path d="M12.4265 4.68002C12.3199 4.57335 12.1599 4.52002 11.9999 4.52002C11.6799 4.52002 11.4132 4.78669 11.4132 5.10669V11.5867L10.3732 10.5467C10.2665 10.44 10.1065 10.3867 9.94654 10.3867C9.78654 10.3867 9.6532 10.44 9.51987 10.5467C9.27987 10.7867 9.27987 11.16 9.51987 11.3734L11.5465 13.4C11.5999 13.4534 11.6532 13.48 11.7332 13.5334C11.7599 13.56 11.7599 13.56 11.7865 13.56H11.8132C11.8932 13.5867 11.9999 13.5867 12.1065 13.56H12.1599C12.2399 13.5334 12.3199 13.48 12.3732 13.4267L14.3999 11.4C14.6399 11.16 14.6399 10.7867 14.3999 10.5734C14.1599 10.3334 13.7865 10.3334 13.5732 10.5734L12.5332 11.6134V5.10669C12.5865 4.94669 12.5332 4.81335 12.4265 4.68002ZM8.71987 16.3067C8.82654 16.4134 8.98654 16.4667 9.14654 16.4667H14.9065C15.2265 16.4667 15.4932 16.2 15.4932 15.88C15.4932 15.56 15.2265 15.2934 14.9065 15.2934H9.11987C8.79987 15.2934 8.5332 15.56 8.5332 15.88C8.5332 16.04 8.58654 16.1734 8.71987 16.3067Z" fill="#898E97"/>
</g>
<defs>
<clipPath id="clip0_7502_2106">
<rect width="16" height="16" fill="white" transform="translate(4 4)"/>
</clipPath>
</defs>
</svg>
