<svg width="20" height="20" viewBox="0 0 20 20" fill="none" xmlns="http://www.w3.org/2000/svg">
<path d="M3.9307 15.1286L9.05906 10.0002L3.93041 4.87156C3.67062 4.61177 3.6707 4.19054 3.93041 3.93071C4.19023 3.67088 4.61144 3.67088 4.87126 3.93071L9.99991 9.05936L15.1286 3.93071C15.3884 3.67088 15.8096 3.67088 16.0694 3.93071C16.3291 4.19054 16.3292 4.61177 16.0694 4.87156L10.9408 10.0002L16.0691 15.1286C16.329 15.3884 16.329 15.8096 16.0691 16.0694C15.8093 16.3291 15.3881 16.3292 15.1283 16.0694L9.99991 10.9411L4.87155 16.0694C4.61176 16.3292 4.19053 16.3291 3.9307 16.0694C3.67087 15.8096 3.67087 15.3884 3.9307 15.1286Z" fill="#73757C"/>
</svg>
