<svg width="20" height="20" viewBox="0 0 20 20" fill="none" xmlns="http://www.w3.org/2000/svg">
<path d="M16.5969 17.5C16.4881 17.5 16.3795 17.4586 16.2967 17.3757L14.8042 15.8833L14.2191 17.1743C14.1848 17.252 14.1277 17.3175 14.0553 17.362C13.9829 17.4064 13.8987 17.4277 13.8139 17.4231C13.7291 17.4198 13.6473 17.391 13.5792 17.3405C13.511 17.29 13.4596 17.2202 13.4318 17.1401L11.6915 12.2338C11.6643 12.1583 11.6593 12.0765 11.6771 11.9982C11.6949 11.9199 11.7347 11.8483 11.7918 11.7919C11.8483 11.7347 11.9199 11.6949 11.9983 11.6771C12.0767 11.6593 12.1585 11.6643 12.2341 11.6915L17.1406 13.4317C17.2206 13.4598 17.2904 13.5112 17.3408 13.5794C17.3912 13.6476 17.42 13.7293 17.4234 13.814C17.4272 13.8987 17.4055 13.9827 17.3611 14.0549C17.3167 14.1271 17.2516 14.1844 17.1743 14.2192L15.8835 14.8043L17.3758 16.2965C17.4553 16.3762 17.5 16.4843 17.5 16.597C17.5 16.7096 17.4553 16.8177 17.3758 16.8975L16.8972 17.3757C16.8578 17.4152 16.811 17.4465 16.7595 17.4678C16.7079 17.4891 16.6527 17.5001 16.5969 17.5Z" fill="#73757C"/>
<path d="M3.33333 15C2.8731 15 2.5 15.3731 2.5 15.8333C2.5 16.2936 2.8731 16.6667 3.33333 16.6667C3.79357 16.6667 4.16667 16.2936 4.16667 15.8333C4.16667 15.3731 3.79357 15 3.33333 15ZM17.5 4.16668C17.5 3.70644 17.1269 3.33334 16.6667 3.33334C16.2064 3.33334 15.8333 3.70644 15.8333 4.16668C15.8333 4.62691 16.2064 5.00001 16.6667 5.00001C17.1269 5.00001 17.5 4.62691 17.5 4.16668ZM3.33333 3.33334C2.8731 3.33334 2.5 3.70644 2.5 4.16668C2.5 4.62691 2.8731 5.00001 3.33333 5.00001C3.79357 5.00001 4.16667 4.62691 4.16667 4.16668C4.16667 3.70644 3.79357 3.33334 3.33333 3.33334ZM18.75 4.16668C18.75 5.10234 18.1331 5.89374 17.2839 6.15683C17.2885 6.18727 17.2917 6.2183 17.2917 6.25001V9.58334C17.2917 9.92852 17.0118 10.2083 16.6667 10.2083C16.3215 10.2083 16.0417 9.92852 16.0417 9.58334V6.25001C16.0417 6.21832 16.0444 6.18725 16.049 6.15683C15.395 5.95408 14.8787 5.438 14.6761 4.78395C14.6458 4.78846 14.6149 4.79168 14.5833 4.79168H5.32145C5.11716 5.44218 4.60218 5.95496 3.9506 6.15683C3.95516 6.18727 3.95833 6.2183 3.95833 6.25001V13.75C3.95833 13.7816 3.95512 13.8125 3.9506 13.8428C4.60465 14.0454 5.12074 14.5617 5.32349 15.2157C5.35391 15.2111 5.38498 15.2083 5.41667 15.2083H9.58333C9.92851 15.2083 10.2083 15.4882 10.2083 15.8333C10.2083 16.1785 9.92851 16.4583 9.58333 16.4583H5.41667C5.38496 16.4583 5.35392 16.4552 5.32349 16.4506C5.06039 17.2998 4.26899 17.9167 3.33333 17.9167C2.18274 17.9167 1.25 16.9839 1.25 15.8333C1.25 14.8978 1.8666 14.106 2.71566 13.8428C2.71115 13.8125 2.70833 13.7816 2.70833 13.75V6.25001C2.70833 6.21832 2.71111 6.18725 2.71566 6.15683C1.86666 5.89362 1.25 5.1022 1.25 4.16668C1.25 3.01608 2.18274 2.08334 3.33333 2.08334C4.26619 2.08334 5.05599 2.69642 5.32145 3.54168H14.5833C14.6149 3.54168 14.6458 3.54449 14.6761 3.549C14.9393 2.69994 15.7311 2.08334 16.6667 2.08334C17.8173 2.08334 18.75 3.01608 18.75 4.16668Z" fill="#73757C"/>
</svg>
