<svg width="20" height="20" viewBox="0 0 20 20" fill="none" xmlns="http://www.w3.org/2000/svg">
<path fill-rule="evenodd" clip-rule="evenodd" d="M10.0001 6.87523C11.726 6.87523 13.1251 8.27434 13.1251 10.0002C13.125 11.726 11.7259 13.1252 10.0001 13.1252C8.27426 13.1252 6.87519 11.726 6.87508 10.0002C6.87508 8.27434 8.27419 6.87523 10.0001 6.87523ZM10.0001 8.12523C8.96455 8.12523 8.12508 8.96469 8.12508 10.0002C8.12519 11.0357 8.96462 11.8752 10.0001 11.8752C11.0355 11.8752 11.875 11.0357 11.8751 10.0002C11.8751 8.96469 11.0356 8.12523 10.0001 8.12523Z" fill="#73757C"/>
<path fill-rule="evenodd" clip-rule="evenodd" d="M8.50431 2.17145C9.44276 1.67193 10.5644 1.68847 11.4914 2.18813C12.3346 2.64268 13.0599 3.01694 13.7875 3.39215C14.5147 3.76717 15.245 4.1436 16.0906 4.59821C17.0963 5.13892 17.7083 6.19143 17.7084 7.32282V12.5002C17.7084 13.6335 17.0947 14.678 16.1048 15.2297L11.5215 17.7842C10.5758 18.3113 9.4244 18.3113 8.47868 17.7842L3.89534 15.2297C2.90547 14.678 2.2918 13.6335 2.29175 12.5002V7.35537C2.29186 6.20057 2.92888 5.13968 3.94824 4.59699L8.50431 2.17145ZM10.8981 3.28839C10.3304 2.98243 9.65183 2.97667 9.09147 3.27496L4.53581 5.7005C3.92423 6.0261 3.54186 6.66254 3.54175 7.35537V12.5002C3.5418 13.1802 3.91014 13.807 4.50407 14.138L9.0874 16.6921C9.65483 17.0083 10.3453 17.0083 10.9128 16.6921L15.4961 14.138C16.09 13.807 16.4584 13.1802 16.4584 12.5002V7.32282C16.4583 6.64107 16.0898 6.01676 15.4985 5.69887C14.6638 5.25011 13.9426 4.87883 13.2146 4.5034C12.487 4.12819 11.7525 3.74898 10.8981 3.28839Z" fill="#73757C"/>
</svg>
