<svg width="20" height="20" viewBox="0 0 20 20" fill="none" xmlns="http://www.w3.org/2000/svg">
<path d="M5.58054 14.4196C3.13979 11.9788 3.13985 8.02152 5.58054 5.58074C8.02131 3.13996 11.9786 3.13996 14.4194 5.58074C14.8718 6.03322 15.2313 6.53969 15.5107 7.08294L11.875 7.08351C11.5299 7.08351 11.2501 7.36327 11.2501 7.70844C11.2502 8.05357 11.5299 8.33338 11.875 8.33338H16.4585C16.8035 8.3333 17.0833 8.05352 17.0834 7.70844V3.12502C17.0834 2.77989 16.8036 2.50016 16.4585 2.50009C16.1133 2.50009 15.8335 2.77985 15.8335 3.12502V5.29042C15.6702 5.08589 15.4939 4.88751 15.3033 4.69685C12.3743 1.76792 7.62559 1.76792 4.69665 4.69685C1.76781 7.62579 1.76775 12.3746 4.69665 15.3035C7.62556 18.2323 12.3743 18.2323 15.3033 15.3035C15.5473 15.0594 15.5473 14.6637 15.3033 14.4196C15.0592 14.1755 14.6634 14.1755 14.4194 14.4196C11.9786 16.8602 8.02129 16.8603 5.58054 14.4196Z" fill="#73757C"/>
</svg>
