<svg width="20" height="20" viewBox="0 0 20 20" fill="none" xmlns="http://www.w3.org/2000/svg">
<path d="M8.46732 17.0912C9.4676 17.3018 10.5315 17.3019 11.5318 17.0914C11.7395 17.0477 11.9 16.8842 11.9381 16.6776C12.3703 14.337 12.7969 14.2645 14.8744 14.9994C15.0742 15.07 15.2973 15.0145 15.4396 14.8588C16.1316 14.101 16.6561 13.2068 16.9746 12.2325C17.0398 12.0328 16.9769 11.8138 16.8152 11.678C14.9897 10.1448 15.1224 9.74399 16.8152 8.32221C16.9769 8.18636 17.0398 7.96741 16.9746 7.76768C16.6561 6.7934 16.1316 5.89918 15.4396 5.14141C15.2973 4.98568 15.0742 4.93017 14.8744 5.00084C12.6344 5.79317 12.3396 5.4968 11.9381 3.3226C11.9 3.11594 11.7395 2.95251 11.5318 2.9088C10.5315 2.6983 9.4676 2.69837 8.46732 2.909C8.25955 2.95274 8.09905 3.11628 8.06098 3.32301C7.62991 5.66376 7.2027 5.73555 5.12558 5.00084C4.9258 4.93017 4.70267 4.98568 4.56045 5.14141C3.86842 5.89918 3.34387 6.7934 3.02543 7.76768C2.96015 7.96741 3.0231 8.18636 3.18485 8.32221C4.88602 9.75102 5.0137 10.1419 3.18485 11.678C3.0231 11.8138 2.96015 12.0328 3.02543 12.2325C3.34387 13.2068 3.86842 14.101 4.56045 14.8588C4.70267 15.0145 4.9258 15.07 5.12558 14.9994C7.36524 14.2071 7.66056 14.5029 8.06098 16.6772C8.09905 16.8839 8.25955 17.0474 8.46732 17.0912ZM4.08427 7.77425C4.3254 7.14967 4.66729 6.56741 5.09592 6.04921C5.49979 6.18655 5.88109 6.30148 6.22552 6.36248C6.65466 6.43848 7.17688 6.46001 7.67212 6.20232C8.17801 5.9391 8.4603 5.48793 8.6377 5.05563C8.77993 4.709 8.8873 4.2939 8.98141 3.83074C9.65117 3.72447 10.3473 3.72439 11.0171 3.8305C11.1002 4.24806 11.1923 4.63392 11.3137 4.96119C11.4666 5.37352 11.716 5.83452 12.1954 6.12745C12.6794 6.42324 13.2101 6.43383 13.668 6.36865C14.0395 6.31576 14.4539 6.19932 14.9036 6.0486C15.3325 6.56697 15.6745 7.14946 15.9158 7.77431C15.5954 8.05078 15.3063 8.31934 15.082 8.58359C14.7997 8.91613 14.5163 9.36002 14.4964 9.92302C14.4762 10.4953 14.735 10.9634 15.0227 11.3271C15.2537 11.6193 15.561 11.9158 15.9161 12.2251C15.6749 12.85 15.3329 13.4326 14.9041 13.951C14.5001 13.8136 14.1187 13.6987 13.7742 13.6377C13.3449 13.5617 12.8227 13.5404 12.3275 13.7982C11.8218 14.0615 11.5395 14.5126 11.362 14.9447C11.2197 15.2913 11.1122 15.7064 11.0179 16.1696C10.3481 16.2758 9.65201 16.2758 8.98222 16.1696C8.89932 15.752 8.80732 15.3662 8.68604 15.0389C8.53321 14.6265 8.28379 14.1654 7.8043 13.8725C7.32024 13.5768 6.78953 13.5663 6.33175 13.6315C5.96028 13.6845 5.54602 13.8009 5.09642 13.9516C4.66738 13.433 4.32521 12.8503 4.08397 12.2252C4.43924 11.916 4.74694 11.62 4.97836 11.3289C5.26608 10.967 5.52757 10.4993 5.50802 9.92583C5.48879 9.36142 5.20373 8.91711 4.92124 8.5852C4.69635 8.32095 4.40613 8.05184 4.08427 7.77425Z" fill="#898E97"/>
<path d="M10 11.0001C9.44772 11.0001 9 10.5524 9 10.0001C9 9.44781 9.44772 9.0001 10 9.0001C10.5523 9.0001 11 9.44781 11 10.0001C11 10.5524 10.5523 11.0001 10 11.0001ZM10 12.0001C11.1046 12.0001 12 11.1047 12 10.0001C12 8.89553 11.1046 8.0001 10 8.0001C8.89543 8.0001 8 8.89553 8 10.0001C8 11.1047 8.89543 12.0001 10 12.0001Z" fill="#898E97"/>
</svg>
