<svg width="20" height="20" viewBox="0 0 20 20" fill="none" xmlns="http://www.w3.org/2000/svg">
  <path d="M13.9583 6.87495C13.9583 6.48982 13.8134 6.08468 13.5604 5.65791C13.5059 5.56609 13.4472 5.47566 13.3862 5.3861L7.2343 16.0416H16.132C16.4771 16.0416 16.7001 15.8622 16.7908 15.6717C16.8746 15.4956 16.8695 15.2684 16.6471 15.0516C16.6446 15.0492 16.6419 15.0468 16.6394 15.0443L13.9583 12.3409V6.87495ZM8.68206 17.2916C8.9161 17.7843 9.41825 18.1249 10 18.125C10.5818 18.125 11.0839 17.7843 11.318 17.2916H8.68206ZM4.79168 6.87495C4.7917 4.11356 7.03028 1.87496 9.79168 1.87495C10.465 1.87495 11.1089 2.0085 11.6968 2.25093C12.0157 2.38256 12.1676 2.74774 12.0361 3.06677C11.9046 3.38588 11.539 3.53811 11.2199 3.40653C10.7805 3.22537 10.2986 3.12495 9.79168 3.12495C7.72063 3.12496 6.04171 4.80391 6.04168 6.87495V12.3421L3.33782 15.0463C2.97047 15.4137 3.23052 16.0416 3.75001 16.0416C4.09517 16.0416 4.37498 16.3215 4.37501 16.6666C4.37501 17.0118 4.09519 17.2916 3.75001 17.2916C2.11688 17.2916 1.29883 15.3169 2.45362 14.1621L4.79168 11.8241V6.87495ZM15.2083 11.8257L17.5273 14.1642C18.1317 14.7591 18.2285 15.5595 17.9195 16.2089C17.6161 16.8464 16.9465 17.2916 16.132 17.2916H12.6351C12.3529 18.486 11.2806 19.375 10 19.375C8.7194 19.3749 7.64711 18.486 7.36492 17.2916H6.51287L5.9489 18.2682C5.77635 18.5671 5.39413 18.6697 5.09523 18.4973C4.79629 18.3247 4.69355 17.9421 4.86614 17.6432L14.0515 1.73376C14.2241 1.43483 14.6067 1.33249 14.9056 1.50508C15.2044 1.6777 15.3068 2.05988 15.1343 2.35876L14.0682 4.20446C14.2649 4.45575 14.4631 4.72962 14.6354 5.0203C14.9491 5.54923 15.2083 6.17923 15.2083 6.87495V11.8257Z" fill="#101217"/>
</svg>
