<svg width="20" height="20" viewBox="0 0 20 20" fill="none" xmlns="http://www.w3.org/2000/svg">
  <path d="M3.93082 15.1286L9.05918 10.0002L3.93053 4.87159C3.67074 4.6118 3.67082 4.19057 3.93053 3.93074C4.19036 3.67091 4.61156 3.67091 4.87138 3.93074L10 9.05939L15.1287 3.93074C15.3885 3.67091 15.8097 3.67091 16.0695 3.93074C16.3293 4.19057 16.3293 4.6118 16.0695 4.87159L10.9409 10.0002L16.0693 15.1286C16.3291 15.3884 16.3291 15.8096 16.0693 16.0695C15.8094 16.3292 15.3882 16.3293 15.1284 16.0695L10 10.9411L4.87167 16.0695C4.61188 16.3293 4.19065 16.3292 3.93082 16.0695C3.67099 15.8096 3.67099 15.3884 3.93082 15.1286Z" fill="#101217"/>
</svg>
