<?xml version="1.0" standalone="no"?><!DOCTYPE svg PUBLIC "-//W3C//DTD SVG 1.1//EN" "http://www.w3.org/Graphics/SVG/1.1/DTD/svg11.dtd"><svg t="1661689997812" class="icon" viewBox="0 0 1024 1024" version="1.1" xmlns="http://www.w3.org/2000/svg" p-id="3422" xmlns:xlink="http://www.w3.org/1999/xlink" width="200" height="200"><path d="M480 341.290667h320l10.24 0.341333a138.666667 138.666667 0 0 1 128.213333 130.432l0.213334 7.893333v320a138.666667 138.666667 0 0 1-130.816 138.453334l-7.850667 0.213333h-320a138.666667 138.666667 0 0 1-138.453333-130.816L341.333333 800v-320a138.666667 138.666667 0 0 1 130.816-138.453333l7.850667-0.213334zM405.333333 799.957333l0.213334 5.418667 0.768 6.698667a74.666667 74.666667 0 0 0 67.584 62.293333l6.101333 0.256h320a74.666667 74.666667 0 0 0 74.410667-68.565333l0.256-6.101334v-320a74.666667 74.666667 0 0 0-74.666667-74.666666h-320a74.666667 74.666667 0 0 0-74.410667 68.522666l-0.256 6.144v320zM672 213.333333a138.752 138.752 0 0 1 128 85.248h-75.861333a74.410667 74.410667 0 0 0-46.037334-20.992L672 277.333333h-320a74.666667 74.666667 0 0 0-74.410667 68.522667L277.333333 352v320l0.426667 8.362667c1.92 17.024 9.557333 32.298667 20.906667 43.904v75.776a138.752 138.752 0 0 1-85.12-120.192L213.333333 672v-320a138.666667 138.666667 0 0 1 130.816-138.453333L352 213.333333h320z m-128-128c55.466667 0 103.296 32.554667 125.482667 79.616L672 170.666667l-75.818667-0.042667a74.410667 74.410667 0 0 0-46.08-21.034667L544 149.333333h-320a74.666667 74.666667 0 0 0-74.410667 68.522667L149.333333 224v320c0 20.352 8.106667 38.826667 21.333334 52.266667v75.776a138.752 138.752 0 0 1-85.12-120.192L85.333333 544v-320a138.666667 138.666667 0 0 1 130.816-138.453333L224 85.333333h320z" p-id="3423" fill="#1296db"></path></svg>