<svg xmlns="http://www.w3.org/2000/svg" width="32" height="32" viewBox="0 0 32 32" fill="none">
  <path fill-rule="evenodd" clip-rule="evenodd" d="M0 4.26667C0 1.91025 1.91025 0 4.26667 0H27.7333C30.0897 0 32 1.91025 32 4.26667V10.6667H0V4.26667Z" fill="#8EB7FF"/>
  <path fill-rule="evenodd" clip-rule="evenodd" d="M0 10.6667H32V21.3333H0V10.6667Z" fill="#FFD080"/>
  <path fill-rule="evenodd" clip-rule="evenodd" d="M0 21.3333H32V27.7333C32 30.0897 30.0897 32 27.7333 32H4.26667C1.91025 32 0 30.0897 0 27.7333V21.3333Z" fill="#71DA94"/>
  <rect x="10.666" width="10.6667" height="32" fill="url(#paint0_linear_8412_31859)"/>
  <path fill-rule="evenodd" clip-rule="evenodd" d="M13.334 0H16.0007V2.66667H14.0451C13.6524 2.66667 13.334 2.34829 13.334 1.95556V0ZM16.0007 5.33333V2.66667H17.9562C18.3489 2.66667 18.6673 2.98504 18.6673 3.37778V4.62222C18.6673 5.01496 18.3489 5.33333 17.9562 5.33333H16.0007ZM16.0007 8H14.0451C13.6524 8 13.334 7.68162 13.334 7.28889V6.04445C13.334 5.65171 13.6524 5.33333 14.0451 5.33333H16.0007V8ZM16.0007 10.6667H17.9562C18.3489 10.6667 18.6673 10.3483 18.6673 9.95556V8.71111C18.6673 8.31838 18.3489 8 17.9562 8H16.0007V10.6667ZM16.0007 10.6667V12.6222C16.0007 13.015 15.6823 13.3333 15.2895 13.3333H14.0451C13.6524 13.3333 13.334 13.015 13.334 12.6222V11.3778C13.334 10.985 13.6524 10.6667 14.0451 10.6667H16.0007Z" fill="white"/>
  <defs>
    <linearGradient id="paint0_linear_8412_31859" x1="15.9993" y1="0" x2="15.9993" y2="32" gradientUnits="userSpaceOnUse">
      <stop stop-color="#FFA3A4"/>
      <stop offset="1" stop-color="#FF6E70"/>
    </linearGradient>
  </defs>
</svg>