<svg width="38" height="38" viewBox="0 0 38 38" fill="none" xmlns="http://www.w3.org/2000/svg">
<path d="M0 19C0 8.50659 8.50659 0 19 0C29.4934 0 38 8.50659 38 19C38 29.4934 29.4934 38 19 38C8.50659 38 0 29.4934 0 19Z" fill="#D9D9D9"/>
<path d="M0 19C0 8.50659 8.50659 0 19 0C29.4934 0 38 8.50659 38 19C38 29.4934 29.4934 38 19 38C8.50659 38 0 29.4934 0 19Z" fill="url(#paint0_linear_15162_26)"/>
<path d="M0 19C0 8.50659 8.50659 0 19 0C29.4934 0 38 8.50659 38 19C38 29.4934 29.4934 38 19 38C8.50659 38 0 29.4934 0 19Z" fill="url(#paint1_radial_15162_26)" fill-opacity="0.5"/>
<path d="M0 19C0 8.50659 8.50659 0 19 0C29.4934 0 38 8.50659 38 19C38 29.4934 29.4934 38 19 38C8.50659 38 0 29.4934 0 19Z" fill="url(#paint2_radial_15162_26)" fill-opacity="0.3"/>
<path d="M14.3427 20.8662C13.3464 18.2088 14.6506 15.2627 17.2558 14.2859C19.861 13.3091 22.7807 14.6714 23.7771 17.3287C24.2392 18.561 24.2065 19.8554 23.7787 20.9868" stroke="white" stroke-opacity="0.9" stroke-width="1.5" stroke-linecap="round" stroke-linejoin="round"/>
<path d="M11.7685 26.109C8.89734 23.2237 7.9547 18.7539 9.73893 14.8291C12.0418 9.76326 18.0153 7.52348 23.0812 9.82638C25.5643 10.9552 27.3685 12.966 28.2914 15.3196C29.2513 17.7674 29.2579 20.586 28.0838 23.1686C27.439 24.587 26.5065 25.7839 25.3866 26.7215" stroke="white" stroke-opacity="0.5" stroke-width="1.5" stroke-linecap="round" stroke-linejoin="round"/>
<path d="M21.5909 26.7727L19 29.3636L16.4091 26.7727" stroke="white" stroke-width="2.01515" stroke-linecap="round" stroke-linejoin="round"/>
<path d="M19 20.2954V28.9318" stroke="white" stroke-width="2.07273" stroke-linecap="round" stroke-linejoin="round"/>
<defs>
<linearGradient id="paint0_linear_15162_26" x1="11.5781" y1="1.1875" x2="27.0156" y2="36.2188" gradientUnits="userSpaceOnUse">
<stop stop-color="#4797FF"/>
<stop offset="0.671875" stop-color="#0F7DFF"/>
<stop offset="1" stop-color="#5686FF"/>
</linearGradient>
<radialGradient id="paint1_radial_15162_26" cx="0" cy="0" r="1" gradientUnits="userSpaceOnUse" gradientTransform="translate(6.53125 4.75) rotate(49.7636) scale(15.1668)">
<stop stop-color="#62F6FF"/>
<stop offset="1" stop-color="#55ADFF" stop-opacity="0"/>
</radialGradient>
<radialGradient id="paint2_radial_15162_26" cx="0" cy="0" r="1" gradientUnits="userSpaceOnUse" gradientTransform="translate(33.5469 33.5469) rotate(-132.207) scale(17.2341)">
<stop offset="0.150901" stop-color="#BCD4FF"/>
<stop offset="1" stop-color="#BCD4FF" stop-opacity="0"/>
</radialGradient>
</defs>
</svg>
