<svg width="32" height="32" viewBox="0 0 32 32" fill="none" xmlns="http://www.w3.org/2000/svg">
<path d="M0 5.33333C0 2.38782 2.38781 0 5.33333 0H26.6667C29.6122 0 32 2.38781 32 5.33333V26.6667C32 29.6122 29.6122 32 26.6667 32H5.33333C2.38782 32 0 29.6122 0 26.6667V5.33333Z" fill="url(#paint0_linear_7161_18239)"/>
<g filter="url(#filter0_d_7161_18239)">
<path d="M11.5014 11.5019C10.5641 12.4391 10.5641 13.9587 11.5014 14.896L13.1419 16.5365C13.6105 17.0051 13.6105 17.7649 13.1419 18.2335C12.6732 18.7022 11.9134 18.7022 11.4448 18.2335L9.80433 16.593C7.92981 14.7185 7.92981 11.6793 9.80432 9.80481C11.6788 7.93029 14.718 7.93029 16.5926 9.80481L18.233 11.4453C18.7017 11.9139 18.7017 12.6737 18.233 13.1424C17.7644 13.611 17.0046 13.611 16.536 13.1424L14.8955 11.5019C13.9582 10.5646 12.4386 10.5646 11.5014 11.5019Z" fill="white"/>
<path d="M20.2654 20.2678C21.2026 19.3306 21.2026 17.811 20.2654 16.8737L18.8511 15.4595C18.3825 14.9909 18.3825 14.2311 18.8511 13.7625C19.3198 13.2938 20.0796 13.2938 20.5482 13.7625L21.9624 15.1767C23.8369 17.0512 23.8369 20.0904 21.9624 21.9649C20.0879 23.8394 17.0487 23.8394 15.1742 21.9649L13.76 20.5507C13.2913 20.0821 13.2913 19.3223 13.76 18.8536C14.2286 18.385 14.9884 18.385 15.457 18.8536L16.8712 20.2678C17.8085 21.2051 19.3281 21.2051 20.2654 20.2678Z" fill="white"/>
<path d="M14.3282 12.6356C13.8596 12.167 13.0998 12.167 12.6312 12.6356C12.1626 13.1042 12.1626 13.864 12.6312 14.3327L17.7224 19.4238C18.191 19.8925 18.9508 19.8925 19.4194 19.4238C19.888 18.9552 19.888 18.1954 19.4194 17.7268L14.3282 12.6356Z" fill="white"/>
</g>
<defs>
<filter id="filter0_d_7161_18239" x="5.39844" y="5.39892" width="20.9707" height="20.9719" filterUnits="userSpaceOnUse" color-interpolation-filters="sRGB">
<feFlood flood-opacity="0" result="BackgroundImageFix"/>
<feColorMatrix in="SourceAlpha" type="matrix" values="0 0 0 0 0 0 0 0 0 0 0 0 0 0 0 0 0 0 127 0" result="hardAlpha"/>
<feOffset/>
<feGaussianBlur stdDeviation="1.5"/>
<feComposite in2="hardAlpha" operator="out"/>
<feColorMatrix type="matrix" values="0 0 0 0 0 0 0 0 0 0 0 0 0 0 0 0 0 0 0.3 0"/>
<feBlend mode="overlay" in2="BackgroundImageFix" result="effect1_dropShadow_7161_18239"/>
<feBlend mode="normal" in="SourceGraphic" in2="effect1_dropShadow_7161_18239" result="shape"/>
</filter>
<linearGradient id="paint0_linear_7161_18239" x1="8.30496" y1="-7.55182e-07" x2="26.1172" y2="36.2138" gradientUnits="userSpaceOnUse">
<stop stop-color="#89EEAA"/>
<stop offset="1" stop-color="#6DD790"/>
</linearGradient>
</defs>
</svg>
