<svg width="32" height="32" viewBox="0 0 32 32" fill="none" xmlns="http://www.w3.org/2000/svg">
<path fill-rule="evenodd" clip-rule="evenodd" d="M0 5.33333C0 2.38782 2.38781 0 5.33333 0H26.6667C29.6122 0 32 2.38781 32 5.33333V26.6667C32 29.6122 29.6122 32 26.6667 32H5.33333C2.38782 32 0 29.6122 0 26.6667V5.33333Z" fill="url(#paint0_linear_8135_11185)"/>
<g filter="url(#filter0_d_8135_11185)">
<path d="M16.3501 6.79684C18.0767 6.90357 19.9382 7.76125 20.8469 9.56603C21.8081 11.475 21.5683 13.8537 19.905 15.864C19.54 16.3052 19.1406 16.6297 18.8142 16.8772C18.6853 16.9749 18.578 17.0539 18.4839 17.1231C18.3068 17.2534 18.1762 17.3495 18.0359 17.472C17.8598 17.6256 17.7741 17.7373 17.7219 17.8415C17.6727 17.9396 17.6119 18.1131 17.6119 18.4439C17.6119 19.2641 16.9469 19.9291 16.1267 19.9291C15.3064 19.9291 14.6415 19.2641 14.6415 18.4439C14.6415 17.7185 14.7818 17.078 15.0664 16.5102C15.348 15.9487 15.7286 15.5429 16.083 15.2338C16.3203 15.0267 16.607 14.8154 16.8274 14.6529C16.8999 14.5995 16.9654 14.5512 17.0195 14.5102C17.283 14.3104 17.469 14.1485 17.6163 13.9705C18.5958 12.7866 18.5782 11.6654 18.1938 10.9019C17.8821 10.2828 17.141 9.82184 16.1668 9.76163C15.1916 9.70135 14.3353 10.0689 13.8972 10.662C13.6833 10.9516 13.5493 11.285 13.4721 11.6303C13.2933 12.4308 12.4993 12.9348 11.6988 12.7559C10.8983 12.5771 10.3943 11.7831 10.5732 10.9826C10.7196 10.327 10.997 9.58881 11.5079 8.89709C12.6822 7.30739 14.6247 6.69019 16.3501 6.79684Z" fill="white"/>
<path d="M16.1271 25.2912C17.1525 25.2912 17.9837 24.46 17.9837 23.4347C17.9837 22.4094 17.1525 21.5782 16.1271 21.5782C15.1018 21.5782 14.2706 22.4094 14.2706 23.4347C14.2706 24.46 15.1018 25.2912 16.1271 25.2912Z" fill="white"/>
</g>
<defs>
<filter id="filter0_d_8135_11185" x="7.53711" y="3.78516" width="16.873" height="24.5078" filterUnits="userSpaceOnUse" color-interpolation-filters="sRGB">
<feFlood flood-opacity="0" result="BackgroundImageFix"/>
<feColorMatrix in="SourceAlpha" type="matrix" values="0 0 0 0 0 0 0 0 0 0 0 0 0 0 0 0 0 0 127 0" result="hardAlpha"/>
<feOffset/>
<feGaussianBlur stdDeviation="1.5"/>
<feComposite in2="hardAlpha" operator="out"/>
<feColorMatrix type="matrix" values="0 0 0 0 0 0 0 0 0 0 0 0 0 0 0 0 0 0 0.3 0"/>
<feBlend mode="overlay" in2="BackgroundImageFix" result="effect1_dropShadow_8135_11185"/>
<feBlend mode="normal" in="SourceGraphic" in2="effect1_dropShadow_8135_11185" result="shape"/>
</filter>
<linearGradient id="paint0_linear_8135_11185" x1="32" y1="36.0878" x2="5.84513e-08" y2="-8.31888" gradientUnits="userSpaceOnUse">
<stop stop-color="#BCC3D1"/>
<stop offset="1" stop-color="#D9E0EB"/>
</linearGradient>
</defs>
</svg>
